name 900006_16.mot
datacolumns 153
datarows 4
range 0.15000001 0.17500000
endheader

                time	           pelvis_tx	           pelvis_ty	           pelvis_tz	         pelvis_tilt	         pelvis_list	     pelvis_rotation	       hip_flexion_r	     hip_adduction_r	      hip_rotation_r	        knee_angle_r	       ankle_angle_r	    subtalar_angle_r	         mtp_angle_r	       hip_flexion_l	     hip_adduction_l	      hip_rotation_l	        knee_angle_l	       ankle_angle_l	    subtalar_angle_l	         mtp_angle_l	    lumbar_extension	      lumbar_bending	     lumbar_rotation	     ground_force_vx	     ground_force_vy	     ground_force_vz	     ground_force_px	     ground_force_py	     ground_force_pz	     ground_force_vx	     ground_force_vy	     ground_force_vz	     ground_force_px	     ground_force_py	     ground_force_pz	     ground_torque_x	     ground_torque_y	     ground_torque_z	     ground_torque_x	     ground_torque_y	     ground_torque_z	    ground_marker_px	    ground_marker_py	    ground_marker_pz	    ground_marker_px	    ground_marker_py	    ground_marker_pz	    ground_marker_px	    ground_marker_py	    ground_marker_pz	    ground_marker_px	    ground_marker_py	    ground_marker_pz	    ground_marker_px	    ground_marker_py	    ground_marker_pz	    ground_marker_px	    ground_marker_py	    ground_marker_pz	    ground_marker_px	    ground_marker_py	    ground_marker_pz	    ground_marker_px	    ground_marker_py	    ground_marker_pz	    ground_marker_px	    ground_marker_py	    ground_marker_pz	    ground_marker_px	    ground_marker_py	    ground_marker_pz	    ground_marker_px	    ground_marker_py	    ground_marker_pz	    ground_marker_px	    ground_marker_py	    ground_marker_pz	    ground_marker_px	    ground_marker_py	    ground_marker_pz	    ground_marker_px	    ground_marker_py	    ground_marker_pz	    ground_marker_px	    ground_marker_py	    ground_marker_pz	    ground_marker_px	    ground_marker_py	    ground_marker_pz	    ground_marker_px	    ground_marker_py	    ground_marker_pz	    ground_marker_px	    ground_marker_py	    ground_marker_pz	    ground_marker_px	    ground_marker_py	    ground_marker_pz	    ground_marker_px	    ground_marker_py	    ground_marker_pz	    ground_marker_px	    ground_marker_py	    ground_marker_pz	    ground_marker_px	    ground_marker_py	    ground_marker_pz	    ground_marker_px	    ground_marker_py	    ground_marker_pz	    ground_marker_px	    ground_marker_py	    ground_marker_pz	    ground_marker_px	    ground_marker_py	    ground_marker_pz	    ground_marker_px	    ground_marker_py	    ground_marker_pz	    ground_marker_px	    ground_marker_py	    ground_marker_pz	    ground_marker_px	    ground_marker_py	    ground_marker_pz	    ground_marker_px	    ground_marker_py	    ground_marker_pz	    ground_marker_px	    ground_marker_py	    ground_marker_pz	    ground_marker_px	    ground_marker_py	    ground_marker_pz	    ground_marker_px	    ground_marker_py	    ground_marker_pz	    ground_marker_px	    ground_marker_py	    ground_marker_pz	    ground_marker_px	    ground_marker_py	    ground_marker_pz	    ground_marker_px	    ground_marker_py	    ground_marker_pz	    ground_marker_px	    ground_marker_py	    ground_marker_pz	    ground_marker_px	    ground_marker_py	    ground_marker_pz	
          0.15000001	          1.41305768	          0.82854033	         -0.22418189	          2.02592182	          2.10869241	         -0.81153572	         -7.13773680	         -5.64232206	         -6.87615967	        -40.68505096	        -10.12430191	          0.00000000	          0.00000000	         16.18233871	          3.75469708	         -3.64823890	        -13.20605469	         -2.86160302	          0.00000000	          0.00000000	         -0.85601133	         -0.99657708	         -1.23025036	          0.00000000	          0.00000000	          0.00000000	          1.80168823	          0.00000000	         -0.18965417	        -53.77885255	        434.07583969	         13.04796920	          1.48392346	          0.00000000	         -0.26648907	          0.00000000	          0.00000000	          0.00000000	          0.00000000	         -0.40944745	          0.00000000	          1.37773550	          0.75719655	         -0.23570400	          1.36856830	          0.75224692	         -0.17922927	          1.38690269	          0.76214612	         -0.29217875	          1.28863013	          0.40971789	         -0.13977650	          1.42873645	          0.41517666	         -0.28162509	          1.04506052	          0.14656143	         -0.14557847	          1.47953296	          0.06621145	         -0.26634181	          1.41305768	          0.82854033	         -0.22418189	          1.41078448	          0.82476127	         -0.11240432	          1.41533089	          0.83231938	         -0.33595946	          1.23652971	          0.86000639	         -0.19689777	          1.23691487	          0.85905492	         -0.25039151	          1.29824507	          0.40584376	         -0.08070698	          1.44848275	          0.41299650	         -0.34026021	          1.31402171	          0.39905962	         -0.20409942	          1.44030750	          0.41627225	         -0.22279963	          1.03893900	          0.15151922	         -0.10891519	          1.47135878	          0.06368416	         -0.30182487	          1.04562008	          0.14264588	         -0.17925163	          1.47807646	          0.06804466	         -0.23287542	          1.39661765	          1.18508160	         -0.24332005	          1.40991223	          1.08382905	         -0.24699681	          1.28453147	          1.25093460	         -0.24167834	          1.07906759	          0.06781993	         -0.14814076	          1.57148683	          0.04769778	         -0.27863148	          1.45095181	          0.53123140	         -0.10499757	          1.51636183	          0.58147693	         -0.35682604	          1.39826977	          0.57670635	         -0.07975905	          1.48090863	          0.62180084	         -0.29740846	          1.38104439	          0.52062619	         -0.08252399	          1.48593533	          0.56463617	         -0.28656110	          1.21477020	          0.15369262	         -0.11088092	          1.45674598	          0.16048987	         -0.39637789	          1.14870620	          0.19562037	         -0.13328381	          1.46276641	          0.15519391	         -0.31715259	          1.39703774	          1.18451679	         -0.18652229	          1.40157163	          1.18633854	         -0.29371649	
          0.15833333	          1.42068410	          0.82953203	         -0.22587681	          2.07279682	          1.99737310	         -0.46416512	         -6.38603544	         -5.73984671	         -6.95231962	        -42.09369278	        -10.84903717	          0.00000000	          0.00000000	         15.70682716	          3.86551666	         -4.00194931	        -13.52445984	         -2.35342765	          0.00000000	          0.00000000	         -0.66048110	         -1.09406316	         -1.46050549	          0.00000000	          0.00000000	          0.00000000	          1.80307617	          0.00000000	         -0.18947780	        -51.56648825	        438.56586729	         14.57140103	          1.48517065	          0.00000000	         -0.26680878	          0.00000000	          0.00000000	          0.00000000	          0.00000000	         -0.39787268	          0.00000000	          1.38526273	          0.75811571	         -0.23710260	          1.37647283	          0.75320935	         -0.18056414	          1.39405262	          0.76302207	         -0.29364106	          1.30013359	          0.40986452	         -0.13974817	          1.43112886	          0.41642284	         -0.28259149	          1.05570960	          0.14949180	         -0.14421433	          1.47993374	          0.06619608	         -0.26634160	          1.42068410	          0.82953203	         -0.22587681	          1.41912091	          0.82585126	         -0.11418773	          1.42224741	          0.83321279	         -0.33756590	          1.24425983	          0.86086392	         -0.19730216	          1.24461305	          0.85976177	         -0.25074932	          1.31153440	          0.40591136	         -0.08065479	          1.45256639	          0.41317254	         -0.34119761	          1.32545936	          0.39893907	         -0.20399730	          1.44408000	          0.41695270	         -0.22533111	          1.04973876	          0.15460275	         -0.10754720	          1.47170079	          0.06367221	         -0.30181128	          1.05620015	          0.14561690	         -0.17789568	          1.47858787	          0.06817088	         -0.23288104	          1.40474844	          1.18603754	         -0.24440566	          1.41847575	          1.08483493	         -0.24785735	          1.29233599	          1.25144303	         -0.24298698	          1.08795810	          0.06988394	         -0.14678769	          1.57162392	          0.04735784	         -0.27856803	          1.46257401	          0.53306866	         -0.10592256	          1.52172530	          0.58078849	         -0.35938483	          1.40900850	          0.57804018	         -0.08065584	          1.48766935	          0.62195230	         -0.29984698	          1.39186811	          0.52111644	         -0.08314646	          1.49177206	          0.56458342	         -0.28916728	          1.22557914	          0.15484658	         -0.10997017	          1.45822573	          0.16032240	         -0.39670509	          1.16003823	          0.19735299	         -0.13215622	          1.46430874	          0.15511160	         -0.31748545	          1.40529573	          1.18561900	         -0.18771976	          1.40958571	          1.18718791	         -0.29470342	
          0.16666667	          1.42814648	          0.83049190	         -0.22747943	          2.12266731	          1.87532127	         -0.11415818	         -5.61128807	         -5.77768135	         -6.92631578	        -43.46305847	        -10.96662712	          0.00000000	          0.00000000	         15.20763016	          3.97063613	         -4.30928326	        -13.78122139	         -1.83434033	          0.00000000	          0.00000000	         -0.52803147	         -1.22356069	         -1.68845987	          0.00000000	          0.00000000	          0.00000000	          1.80447192	          0.00000000	         -0.18922415	        -48.41444283	        440.79547656	         15.23595402	          1.48628577	          0.00000000	         -0.26707108	          0.00000000	          0.00000000	          0.00000000	          0.00000000	         -0.32317285	          0.00000000	          1.39267504	          0.75898767	         -0.23836122	          1.38426793	          0.75413495	         -0.18175995	          1.40108216	          0.76384032	         -0.29496250	          1.31442106	          0.40840131	         -0.14003317	          1.43349802	          0.41806343	         -0.28339133	          1.06665754	          0.15228678	         -0.14289403	          1.48027349	          0.06619064	         -0.26633605	          1.42814648	          0.83049190	         -0.22747943	          1.42730057	          0.82693040	         -0.11588662	          1.42899239	          0.83405334	         -0.33907223	          1.25182498	          0.86167037	         -0.19772042	          1.25212979	          0.86046171	         -0.25119311	          1.32496405	          0.40605780	         -0.08083545	          1.45637429	          0.41338697	         -0.34196723	          1.33951581	          0.39784864	         -0.20393060	          1.44772148	          0.41768929	         -0.22789238	          1.06092370	          0.15747784	         -0.10620036	          1.47191894	          0.06367868	         -0.30177817	          1.06681228	          0.14790985	         -0.17651223	          1.47850251	          0.06829387	         -0.23283096	          1.41286695	          1.18710542	         -0.24566993	          1.42691922	          1.08593786	         -0.24882926	          1.30002093	          1.25228286	         -0.24458519	          1.09799325	          0.07224132	         -0.14514595	          1.57169259	          0.04712407	         -0.27849209	          1.47416246	          0.53507048	         -0.10722322	          1.52685988	          0.58005124	         -0.36171412	          1.41943026	          0.57920921	         -0.08161239	          1.49395359	          0.62237078	         -0.30181295	          1.40369892	          0.52202952	         -0.08383142	          1.49722648	          0.56480348	         -0.29143420	          1.23674870	          0.15599750	         -0.10951204	          1.45934916	          0.16023494	         -0.39691803	          1.17126024	          0.19927345	         -0.13184963	          1.46503258	          0.15521574	         -0.31764022	          1.41355622	          1.18687427	         -0.18933344	          1.41757393	          1.18810642	         -0.29563287	
          0.17500000	          1.43548203	          0.83143711	         -0.22899204	          2.18041134	          1.74799180	          0.22403710	         -4.82053471	         -5.77010202	         -6.78421974	        -44.78068161	        -10.54621696	          0.00000000	          0.00000000	         14.66340446	          4.07166576	         -4.56331110	        -13.94746590	         -1.32513952	          0.00000000	          0.00000000	         -0.55864877	         -1.28512728	         -1.95508122	          0.00000000	          0.00000000	          0.00000000	          1.80592480	          0.00000000	         -0.18890604	        -44.77288593	        439.59981476	         14.74369035	          1.48721631	          0.00000000	         -0.26722086	          0.00000000	          0.00000000	          0.00000000	          0.00000000	         -0.20365564	          0.00000000	          1.39998531	          0.75985265	         -0.23952040	          1.39195681	          0.75506139	         -0.18285896	          1.40801370	          0.76464391	         -0.29618186	          1.32855690	          0.40753487	         -0.14051758	          1.43588400	          0.41956794	         -0.28409722	          1.07793951	          0.15489908	         -0.14161058	          1.48057640	          0.06617686	         -0.26633540	          1.43548203	          0.83143711	         -0.22899204	          1.43533146	          0.82800972	         -0.11748821	          1.43563247	          0.83486444	         -0.34049588	          1.25925863	          0.86242706	         -0.19815651	          1.25949883	          0.86115640	         -0.25171381	          1.33852911	          0.40630692	         -0.08121812	          1.45989203	          0.41361675	         -0.34257481	          1.35375905	          0.39752719	         -0.20550616	          1.45231652	          0.41849059	         -0.22886842	          1.07250249	          0.16011594	         -0.10487539	          1.47203243	          0.06368630	         -0.30173379	          1.07766712	          0.15024680	         -0.17519125	          1.47825110	          0.06844167	         -0.23277226	          1.42060280	          1.18823802	         -0.24675760	          1.43471563	          1.08707309	         -0.24972700	          1.30801105	          1.25319850	         -0.24624723	          1.10914707	          0.07481185	         -0.14325370	          1.57172215	          0.04695812	         -0.27841973	          1.48570192	          0.53723150	         -0.10889491	          1.53178596	          0.57928133	         -0.36378351	          1.43023610	          0.58043921	         -0.08319113	          1.50007844	          0.62281257	         -0.30279160	          1.41561139	          0.52282941	         -0.08542694	          1.50275326	          0.56518251	         -0.29266965	          1.24827337	          0.15714820	         -0.10939756	          1.46010602	          0.16019450	         -0.39702278	          1.18270457	          0.20128186	         -0.13165689	          1.46535039	          0.15539704	         -0.31774318	          1.42138207	          1.18812609	         -0.19053331	          1.42522919	          1.18913662	         -0.29661816	
